<svg width="518" height="225" viewBox="0 0 518 225" fill="none" xmlns="http://www.w3.org/2000/svg">
<g id="Frame 1">
<g id="EDARA">
<path id="E" d="M87.482 108.8C90.47 108.8 91.6873 110.294 91.134 113.282L88.146 130.546C87.7033 133.091 86.2093 134.364 83.664 134.364H45.152L41.666 153.786H75.364C78.4627 153.786 79.7353 155.28 79.182 158.268L76.194 174.868C75.6407 177.413 74.1467 178.686 71.712 178.686H37.35L33.698 199.436H72.376C75.364 199.436 76.5813 200.93 76.028 203.918L73.04 221.182C72.5973 223.727 71.1033 225 68.558 225H10.956H7.13801C4.15001 225 2.93268 223.506 3.48601 220.518L22.41 112.618C22.9633 110.073 24.4573 108.8 26.892 108.8H49.634H87.482Z" fill="black"/>
<path id="D" d="M157.874 108.8C173.146 108.8 185.375 114.665 194.56 126.396C203.856 138.127 207.065 152.181 204.188 168.56C201.311 185.049 193.675 198.606 181.28 209.23C168.885 219.743 154.277 225 137.456 225H95.956H92.138C89.15 225 87.9327 223.506 88.486 220.518L107.41 112.618C107.853 110.073 109.347 108.8 111.892 108.8H134.634H157.874ZM178.624 166.07C179.731 159.541 179.399 153.897 177.628 149.138C175.968 144.269 173.035 140.617 168.83 138.182C164.625 135.637 159.479 134.364 153.392 134.364H130.152L118.698 199.436H140.278C150.127 199.436 158.538 196.393 165.51 190.306C172.482 184.219 176.853 176.141 178.624 166.07Z" fill="black"/>
<path id="A" d="M303.758 220.518C304.201 223.506 302.928 225 299.94 225H279.356C276.7 225 275.261 223.672 275.04 221.016L273.38 206.74H232.71L225.406 222.012C224.41 224.004 222.805 225 220.592 225H200.34C198.791 225 197.739 224.557 197.186 223.672C196.522 222.676 196.577 221.459 197.352 220.02L251.634 111.788C252.63 109.796 254.235 108.8 256.448 108.8H283.174C285.719 108.8 287.158 110.073 287.49 112.618L303.758 220.518ZM244.828 181.84H270.89L266.242 137.85L244.828 181.84Z" fill="black"/>
<path id="R" d="M411.762 150.3C410.877 155.391 409.161 160.094 406.616 164.41C404.181 168.615 401.138 172.323 397.486 175.532C393.945 178.631 389.85 181.121 385.202 183.002L407.778 220.02C408.663 221.459 408.829 222.676 408.276 223.672C407.723 224.557 406.616 225 404.956 225H385.7C383.487 225 381.827 224.059 380.72 222.178L358.808 186.82H346.856L340.88 221.182C340.437 223.727 338.943 225 336.398 225H318.138C315.15 225 313.933 223.506 314.486 220.518L333.41 112.618C333.853 110.073 335.347 108.8 337.892 108.8H360.634H377.234C388.301 108.8 397.32 113.005 404.292 121.416C411.264 129.716 413.754 139.344 411.762 150.3ZM379.558 159.43C382.546 156.553 384.427 152.956 385.202 148.64C385.977 144.324 385.202 140.783 382.878 138.016C380.665 135.139 377.345 133.7 372.918 133.7H356.318L351.006 163.58H369.266C373.25 163.58 376.681 162.197 379.558 159.43Z" fill="black"/>
<path id="A_2" d="M516.758 220.518C517.201 223.506 515.928 225 512.94 225H492.356C489.7 225 488.261 223.672 488.04 221.016L486.38 206.74H445.71L438.406 222.012C437.41 224.004 435.805 225 433.592 225H413.34C411.791 225 410.739 224.557 410.186 223.672C409.522 222.676 409.577 221.459 410.352 220.02L464.634 111.788C465.63 109.796 467.235 108.8 469.448 108.8H496.174C498.719 108.8 500.158 110.073 500.49 112.618L516.758 220.518ZM457.828 181.84H483.89L479.242 137.85L457.828 181.84Z" fill="black"/>
</g>
<g id="JAYDEN">
<path id="J" d="M30.96 103.016C20.784 103.016 12.912 100.136 7.34401 94.376C1.87201 88.616 -0.335989 80.888 0.720011 71.192C0.912011 68.984 2.16001 67.88 4.46401 67.88H20.448C22.752 67.88 23.856 69.176 23.76 71.768C23.664 74.936 24.432 77.192 26.064 78.536C27.696 79.88 30.144 80.552 33.408 80.552C41.184 80.552 45.792 76.328 47.232 67.88L58.464 3.512C58.848 1.304 60.144 0.199997 62.352 0.199997H78.192C80.784 0.199997 81.84 1.496 81.36 4.088L69.696 70.76C67.776 81.704 63.264 89.816 56.16 95.096C49.056 100.376 40.656 103.016 30.96 103.016Z" fill="black"/>
<path id="A_3" d="M164.272 97.112C164.656 99.704 163.552 101 160.96 101H143.104C140.8 101 139.552 99.848 139.36 97.544L137.92 85.16H102.64L96.304 98.408C95.44 100.136 94.048 101 92.128 101H74.56C73.216 101 72.304 100.616 71.824 99.848C71.248 98.984 71.296 97.928 71.968 96.68L119.056 2.792C119.92 1.064 121.312 0.199997 123.232 0.199997H146.416C148.624 0.199997 149.872 1.304 150.16 3.512L164.272 97.112ZM113.152 63.56H135.76L131.728 25.4L113.152 63.56Z" fill="black"/>
<path id="Y" d="M249.744 0.199997C251.28 0.199997 252.24 0.631998 252.624 1.496C253.104 2.36 252.864 3.368 251.904 4.52L212.88 56.936L205.68 97.688C205.296 99.896 204 101 201.792 101H185.952C183.36 101 182.304 99.704 182.784 97.112L189.84 56.792L169.104 4.376C168.72 3.512 168.576 2.792 168.672 2.216C168.864 1.544 169.2 1.064 169.68 0.775997C170.256 0.391996 170.976 0.199997 171.84 0.199997H189.264C191.28 0.199997 192.624 1.16 193.296 3.08L204.096 34.184L226.128 2.504C227.184 0.967999 228.624 0.199997 230.448 0.199997H249.744Z" fill="black"/>
<path id="D_2" d="M306.216 0.199997C319.464 0.199997 330.072 5.288 338.04 15.464C346.104 25.64 348.888 37.832 346.392 52.04C343.896 66.344 337.272 78.104 326.52 87.32C315.768 96.44 303.096 101 288.504 101H252.504H249.192C246.6 101 245.544 99.704 246.024 97.112L262.44 3.512C262.824 1.304 264.12 0.199997 266.328 0.199997H286.056H306.216ZM324.216 49.88C325.176 44.216 324.888 39.32 323.352 35.192C321.912 30.968 319.368 27.8 315.72 25.688C312.072 23.48 307.608 22.376 302.328 22.376H282.168L272.232 78.824H290.952C299.496 78.824 306.792 76.184 312.84 70.904C318.888 65.624 322.68 58.616 324.216 49.88Z" fill="black"/>
<path id="E_2" d="M423.888 0.199997C426.48 0.199997 427.536 1.496 427.056 4.088L424.464 19.064C424.08 21.272 422.784 22.376 420.576 22.376H387.168L384.144 39.224H413.376C416.064 39.224 417.168 40.52 416.688 43.112L414.096 57.512C413.616 59.72 412.32 60.824 410.208 60.824H380.4L377.232 78.824H410.784C413.376 78.824 414.432 80.12 413.952 82.712L411.36 97.688C410.976 99.896 409.68 101 407.472 101H357.504H354.192C351.6 101 350.544 99.704 351.024 97.112L367.44 3.512C367.92 1.304 369.216 0.199997 371.328 0.199997H391.056H423.888Z" fill="black"/>
<path id="N" d="M494.72 3.512C495.104 1.304 496.4 0.199997 498.608 0.199997H514.448C517.04 0.199997 518.096 1.496 517.616 4.088L501.2 97.688C500.816 99.896 499.52 101 497.312 101H486.368C484.352 101 482.912 100.088 482.048 98.264L457.28 44.84L447.92 97.688C447.536 99.896 446.24 101 444.032 101H428.192C425.6 101 424.544 99.704 425.024 97.112L441.44 3.512C441.824 1.304 443.12 0.199997 445.328 0.199997H456.272C458.288 0.199997 459.728 1.112 460.592 2.936L485.504 56.36L494.72 3.512Z" fill="black"/>
</g>
</g>
</svg>
